# xmcd CD database file
#
# Track frame offsets:
#	150
#	23730
#	46711
#	63719
#	82526
#	97465
#	116118
#	133471
#	152948
#	171982
#
# Disc length: 2536 seconds
#
# Revision: 4
# Processed by: cddbd v1.5.2PL0 Copyright (c) Steve Scherf et al.
# Submitted via: jetAudio 7
#
DISCID=8a09e60a
DTITLE=Various Artist - R&B Flavas [CD1]
DYEAR=2000
DGENRE=R&B
TTITLE0=Be Careful
TTITLE1=Movin' On Up (On The Right Side)
TTITLE2=My Family Say
TTITLE3=Look U Up
TTITLE4=Groovin' (Lowdown Mix)
TTITLE5=International AKA
TTITLE6=Don't Close Your Eyes
TTITLE7=Remember Me
TTITLE8=How'd U Know
TTITLE9=Save Your Soul (VIP Mix)
EXTD=YEAR: 2000
EXTT0=
EXTT1=
EXTT2=
EXTT3=
EXTT4=
EXTT5=
EXTT6=
EXTT7=
EXTT8=
EXTT9=
PLAYORDER=
